<svg version="1.1" xmlns="http://www.w3.org/2000/svg" xmlns:xlink="http://www.w3.org/1999/xlink" viewBox="0 0 172 172"><g fill="none" fill-rule="nonzero" stroke="none" stroke-width="1" stroke-linecap="butt" stroke-linejoin="miter" stroke-miterlimit="10" stroke-dasharray="" stroke-dashoffset="0" font-family="none" font-weight="none" font-size="none" text-anchor="none" style="mix-blend-mode: normal"><path d="M0,172v-172h172v172z" fill="none"></path><g fill="#3498db"><path d="M50.16667,14.33333c-11.78581,0 -21.5,9.71419 -21.5,21.5c0,9.26628 6.04688,17.16081 14.33333,20.15625v60.02083c-8.28646,2.99544 -14.33333,10.88997 -14.33333,20.15625c0,11.78581 9.71419,21.5 21.5,21.5c11.78581,0 21.5,-9.71419 21.5,-21.5c0,-8.90234 -5.62695,-16.46094 -13.4375,-19.70833c1.00781,-2.82747 2.96745,-4.56315 6.49479,-6.49479c5.31901,-2.91146 13.9974,-4.92708 23.06771,-7.16667c9.07031,-2.23958 18.67253,-4.70312 26.875,-10.30208c6.88672,-4.70312 12.3457,-12.26172 13.88542,-22.17187c8.48242,-2.88347 14.78125,-10.75 14.78125,-20.15625c0,-11.78581 -9.71419,-21.5 -21.5,-21.5c-11.78581,0 -21.5,9.71419 -21.5,21.5c0,9.09831 5.85091,16.79688 13.88542,19.93229c-1.00781,5.03906 -3.63932,7.81055 -7.61458,10.52604c-5.23503,3.58333 -13.54948,6.10287 -22.39583,8.28646c-8.84635,2.1836 -18.08463,4.05924 -26.20313,8.51042c-0.25195,0.13997 -0.44792,0.30794 -0.67187,0.44792v-41.88021c8.28646,-2.99544 14.33333,-10.88997 14.33333,-20.15625c0,-11.78581 -9.71419,-21.5 -21.5,-21.5zM50.16667,28.66667c4.03125,0 7.16667,3.13542 7.16667,7.16667c0,4.03125 -3.13542,7.16667 -7.16667,7.16667c-4.03125,0 -7.16667,-3.13542 -7.16667,-7.16667c0,-4.03125 3.13542,-7.16667 7.16667,-7.16667zM121.83333,43c4.03125,0 7.16667,3.13542 7.16667,7.16667c0,4.03125 -3.13542,7.16667 -7.16667,7.16667c-4.03125,0 -7.16667,-3.13542 -7.16667,-7.16667c0,-4.03125 3.13542,-7.16667 7.16667,-7.16667zM50.16667,129c4.03125,0 7.16667,3.13542 7.16667,7.16667c0,4.03125 -3.13542,7.16667 -7.16667,7.16667c-4.03125,0 -7.16667,-3.13542 -7.16667,-7.16667c0,-4.03125 3.13542,-7.16667 7.16667,-7.16667z"></path></g></g></svg>